<?xml version="1.0" standalone="no"?>
<!DOCTYPE svg PUBLIC "-//W3C//DTD SVG 20010904//EN"
 "http://www.w3.org/TR/2001/REC-SVG-20010904/DTD/svg10.dtd">
<svg version="1.0" xmlns="http://www.w3.org/2000/svg"
 width="500.000000pt" height="500.000000pt" viewBox="0 0 500.000000 500.000000"
 preserveAspectRatio="xMidYMid meet">
<metadata>
Created by potrace 1.11, written by Peter Selinger 2001-2013
</metadata>
<g transform="translate(0.000000,500.000000) scale(0.100000,-0.100000)"
fill="#000000" stroke="none">
<path d="M3697 4977 c-4 -10 1 -20 11 -26 9 -6 14 -11 9 -11 -4 0 2 -18 13
-40 11 -21 20 -46 20 -55 0 -8 4 -15 9 -15 4 0 8 -10 7 -22 -1 -13 5 -29 14
-36 8 -8 9 -11 3 -7 -15 7 -18 -11 -4 -19 5 -3 12 -23 16 -43 5 -21 10 -45 12
-53 1 -8 4 -39 5 -67 2 -29 7 -53 12 -53 5 0 3 -7 -4 -15 -10 -12 -10 -19 -2
-27 7 -7 8 -17 2 -27 -4 -9 -7 -33 -5 -54 2 -20 0 -37 -4 -37 -5 0 -7 -11 -6
-25 4 -36 -6 -38 -60 -10 -27 13 -52 22 -57 19 -4 -3 -8 -1 -8 3 0 26 -99 6
-130 -26 -16 -17 -41 -66 -46 -89 -1 -7 -12 -31 -23 -52 -11 -22 -17 -40 -13
-40 4 0 -1 -7 -11 -14 -16 -12 -23 -12 -50 2 -18 10 -34 20 -37 23 -5 5 -39
21 -50 23 -3 1 -20 11 -37 24 -18 13 -33 18 -33 12 0 -7 -6 -5 -16 4 -14 14
-36 20 -71 19 -7 -1 -13 2 -13 4 0 9 60 74 60 66 1 -4 8 6 17 22 10 17 16 33
15 38 -1 4 2 7 8 7 5 0 10 7 10 16 0 9 5 12 12 8 6 -4 8 -3 5 3 -4 6 -1 26 6
44 8 19 13 43 13 54 -1 11 3 23 9 27 6 5 6 11 -2 19 -7 7 -8 21 -3 40 5 17 5
31 -1 34 -5 4 -9 15 -9 26 0 11 -7 36 -17 57 -9 20 -15 40 -15 44 3 14 -124
135 -155 149 -18 8 -33 17 -33 21 0 5 -3 7 -7 6 -5 -1 -20 2 -35 6 -36 11
-187 13 -191 4 -1 -4 -14 -9 -29 -10 -16 -1 -28 -6 -28 -10 0 -4 -5 -8 -10 -8
-26 0 -174 -132 -162 -144 3 -3 -3 -6 -13 -6 -10 0 -16 -3 -12 -6 3 -4 -5 -27
-18 -53 -14 -25 -25 -56 -25 -68 0 -12 -4 -24 -8 -27 -10 -6 -2 -141 8 -141 1
0 3 -8 5 -18 2 -10 13 -36 24 -57 11 -22 17 -40 13 -41 -22 -4 -58 5 -64 15
-6 8 -8 7 -8 -2 0 -10 -5 -10 -21 -1 -12 6 -38 11 -58 11 -20 0 -40 3 -46 6
-22 14 -186 10 -225 -5 -22 -9 -37 -19 -35 -24 3 -4 -1 -12 -10 -16 -21 -12
-65 -75 -59 -84 3 -5 0 -9 -5 -9 -6 0 -11 -9 -11 -20 0 -11 -4 -20 -8 -20 -9
0 -9 -4 -18 -107 -5 -62 -3 -79 15 -113 19 -37 19 -44 -1 -41 -5 0 -8 -4 -8
-10 0 -7 -8 -6 -23 4 -20 13 -28 13 -55 1 -18 -7 -32 -18 -32 -24 0 -6 -4 -9
-10 -5 -5 3 -30 -15 -55 -40 -25 -25 -51 -45 -56 -45 -6 0 -8 -4 -5 -9 3 -5
-1 -14 -9 -21 -8 -7 -15 -18 -15 -25 0 -7 -19 -31 -41 -54 -23 -22 -38 -41
-34 -41 4 0 2 -6 -4 -13 -9 -12 -18 -41 -20 -70 -1 -13 -25 15 -39 46 -6 15
-17 34 -23 41 -50 60 -70 77 -87 74 -13 -2 -31 11 -53 37 -19 23 -38 42 -44
44 -18 7 -60 35 -73 51 -8 8 -11 10 -8 3 4 -6 -11 -3 -32 7 -21 10 -50 22 -65
25 -15 4 -27 11 -27 17 0 5 -3 7 -8 4 -4 -2 -26 -1 -49 3 -39 8 -43 6 -51 -18
-8 -22 -15 -26 -44 -25 -67 3 -199 41 -221 63 -6 6 -15 11 -20 11 -18 0 -139
105 -131 113 3 3 -4 7 -15 10 -16 4 -20 0 -19 -27 0 -17 3 -35 6 -41 3 -5 7
-25 9 -45 2 -19 8 -36 13 -38 6 -2 10 -10 10 -18 0 -8 7 -26 16 -39 9 -13 17
-30 18 -37 5 -23 20 -53 33 -66 7 -8 11 -18 8 -23 -4 -5 -1 -9 5 -9 6 0 8 -4
5 -10 -3 -5 -2 -10 2 -10 15 0 45 -61 40 -81 -3 -12 0 -22 9 -26 8 -3 11 -9 8
-14 -3 -5 0 -9 5 -9 6 0 11 -7 11 -15 0 -8 5 -15 10 -15 6 0 10 -6 10 -14 0
-7 16 -30 35 -51 19 -21 31 -43 28 -49 -3 -6 -3 -8 2 -4 4 4 19 -5 34 -21 14
-15 36 -33 48 -39 14 -8 20 -18 17 -27 -4 -8 -1 -15 5 -15 6 0 11 -7 11 -16 0
-8 5 -12 10 -9 6 3 10 3 10 -2 0 -4 18 -17 40 -27 22 -11 40 -23 40 -27 0 -6
26 -15 70 -24 8 -2 35 -8 59 -15 23 -6 45 -9 48 -6 3 2 15 1 28 -4 13 -5 25
-6 29 -3 3 3 29 7 58 9 86 7 107 10 115 17 3 4 16 7 27 7 30 0 47 14 49 38 2
27 13 19 36 -26 17 -33 17 -40 5 -57 -8 -10 -14 -16 -14 -13 0 10 -161 -152
-190 -190 -14 -19 -38 -47 -53 -64 -15 -17 -37 -50 -48 -72 -21 -44 -40 -78
-50 -86 -8 -8 -34 -74 -31 -82 1 -5 -1 -8 -6 -8 -7 0 -31 -48 -36 -73 -2 -6
-6 -21 -10 -32 -22 -59 -27 -72 -32 -95 -3 -14 -6 -30 -6 -37 -1 -13 -28 -5
-28 8 0 6 -9 19 -20 31 -10 12 -17 24 -15 28 2 3 -5 13 -16 20 -10 8 -19 19
-19 25 0 6 -25 37 -55 70 -30 32 -55 61 -55 65 0 4 -11 13 -25 20 -14 7 -25
16 -25 20 0 4 -9 17 -20 30 -11 13 -20 19 -20 15 0 -4 -11 3 -24 16 -34 34
-46 43 -132 99 -42 27 -81 50 -86 50 -5 0 -6 5 -2 12 4 6 3 8 -4 4 -6 -3 -13
-2 -17 4 -4 6 -11 8 -16 5 -5 -4 -9 -1 -9 4 0 6 -3 10 -7 9 -5 -1 -33 10 -64
25 -30 15 -71 30 -90 33 -19 4 -40 11 -46 17 -7 5 -13 6 -13 2 0 -4 -7 -2 -15
5 -8 7 -15 9 -15 5 0 -4 -6 -3 -12 2 -7 6 -23 9 -36 8 -13 -1 -25 2 -28 7 -3
4 -10 6 -15 2 -5 -3 -16 0 -24 6 -11 10 -15 10 -15 1 0 -7 -5 -9 -11 -6 -22
14 -192 26 -209 15 -7 -4 -10 -18 -8 -30 3 -21 9 -23 73 -26 82 -3 167 -13
174 -19 2 -3 -2 -5 -11 -5 -8 0 -25 -11 -37 -24 -13 -14 -28 -23 -35 -20 -15
6 -107 -71 -124 -103 -12 -22 -12 -27 0 -34 10 -7 10 -9 0 -9 -7 0 -10 -4 -7
-10 3 -5 1 -10 -6 -10 -7 0 -10 -3 -6 -6 3 -4 0 -13 -8 -21 -10 -9 -15 -35
-15 -73 0 -59 0 -59 27 -54 16 3 53 7 83 8 66 4 123 16 131 28 3 5 18 10 33
12 76 8 164 148 157 249 -1 15 -4 16 -22 7 -11 -7 -23 -9 -27 -6 -3 3 -14 -2
-24 -11 -11 -10 -18 -13 -16 -8 5 15 -15 14 -40 -3 -28 -18 -40 -9 -18 13 11
12 16 13 16 3 0 -7 6 -4 14 8 11 15 25 20 63 19 65 -2 113 -14 142 -36 13 -11
32 -19 42 -19 11 0 19 -5 19 -12 0 -6 3 -8 6 -5 4 3 18 -2 32 -13 13 -11 28
-18 32 -15 4 3 11 -2 14 -11 3 -8 10 -12 16 -9 5 3 10 2 10 -4 0 -5 18 -20 40
-32 22 -13 40 -26 40 -30 0 -3 13 -12 30 -19 16 -7 27 -16 24 -21 -3 -5 2 -9
11 -9 9 0 13 -4 10 -10 -3 -5 -2 -10 4 -10 13 0 141 -126 141 -139 0 -6 9 -15
20 -21 11 -6 20 -15 20 -21 0 -11 15 -31 43 -57 9 -9 17 -22 17 -29 0 -7 4
-13 9 -13 14 0 21 -29 9 -36 -6 -4 -8 -3 -5 3 4 6 -2 18 -13 28 -11 10 -20 15
-20 12 0 -4 -16 9 -35 29 -19 19 -35 32 -35 28 0 -3 -18 8 -39 25 -21 17 -46
31 -56 31 -9 0 -14 4 -11 9 3 5 -5 12 -19 15 -14 4 -25 11 -25 16 0 5 -6 7
-14 4 -8 -3 -17 0 -21 5 -3 6 -11 9 -16 6 -5 -4 -9 -1 -9 5 0 6 -5 8 -11 4 -6
-3 -15 0 -20 7 -7 12 -9 11 -9 -1 0 -12 -2 -12 -9 -2 -4 7 -18 14 -29 15 -12
1 -22 4 -22 8 0 9 -181 8 -205 -2 -48 -18 -60 -22 -67 -21 -5 1 -8 -3 -8 -9 0
-6 -7 -9 -15 -5 -8 3 -15 2 -15 -2 0 -4 -14 -13 -30 -20 -28 -13 -33 -32 -9
-32 6 0 7 5 4 10 -3 6 0 10 8 10 8 0 29 7 47 16 18 9 44 18 59 19 15 1 37 8
49 14 12 6 22 8 22 3 0 -10 42 -8 60 3 6 4 17 1 25 -5 12 -10 15 -10 15 0 0 9
4 9 17 -1 15 -12 16 -12 8 1 -7 13 -6 13 7 2 9 -7 27 -15 39 -17 70 -13 91
-21 161 -57 43 -22 78 -44 78 -50 0 -5 4 -7 9 -3 5 3 21 -6 35 -20 14 -14 30
-25 36 -25 5 0 10 -5 10 -12 0 -6 3 -8 7 -5 3 4 15 -5 25 -20 10 -16 18 -24
18 -19 0 4 20 -13 44 -40 38 -41 56 -84 36 -84 -7 0 -8 -14 -14 -133 -2 -43
-6 -80 -9 -83 -3 -3 -2 -17 3 -30 5 -13 6 -24 2 -24 -10 0 -7 -73 3 -89 3 -6
2 -11 -4 -11 -7 0 -7 -8 -2 -23 5 -13 5 -30 1 -37 -5 -8 -6 -18 -4 -22 3 -4 7
-40 9 -80 4 -65 11 -113 15 -113 1 0 3 -13 4 -30 2 -16 6 -41 11 -55 4 -14 10
-36 12 -50 10 -71 55 -223 79 -269 8 -14 14 -32 14 -38 0 -7 5 -13 12 -13 6 0
8 -3 5 -6 -3 -4 -2 -14 3 -23 5 -10 5 -23 -1 -32 -7 -12 -9 -12 -9 0 0 8 -3
12 -6 8 -4 -3 -18 0 -33 7 -14 7 -32 11 -38 9 -7 -3 -13 1 -13 7 0 7 -7 10
-15 7 -8 -4 -17 -2 -21 4 -3 6 -11 8 -17 6 -7 -2 -30 2 -52 8 -22 6 -80 11
-130 11 l-90 -1 0 -30 c-1 -31 -36 -60 -62 -50 -7 2 -13 1 -13 -4 0 -18 -239
-5 -270 14 -6 4 -22 9 -37 11 -34 6 -110 41 -118 54 -4 6 -11 8 -16 5 -5 -4
-9 -1 -9 4 0 6 -6 11 -14 11 -8 0 -22 10 -30 21 -18 26 -47 19 -41 -10 2 -11
11 -30 19 -44 9 -13 13 -27 9 -30 -3 -4 -1 -7 6 -7 8 0 11 -7 7 -15 -3 -8 -1
-15 3 -15 5 0 24 -24 42 -52 18 -29 39 -57 46 -61 7 -4 13 -15 13 -23 0 -8 7
-17 15 -20 8 -4 12 -10 9 -15 -3 -5 2 -9 10 -9 9 0 16 -6 16 -14 0 -7 11 -21
24 -32 14 -10 23 -20 21 -23 -1 -3 3 -12 11 -19 8 -7 14 -11 14 -8 0 17 75
-72 76 -91 2 -31 172 -193 203 -193 7 0 10 -4 7 -8 -3 -5 7 -15 22 -22 15 -7
36 -17 47 -23 10 -5 32 -11 48 -12 27 -3 52 -15 29 -15 -7 0 -12 -9 -12 -19 0
-15 17 -26 70 -46 38 -15 71 -26 72 -26 2 0 24 -6 50 -14 36 -11 48 -11 48 -2
0 8 3 9 8 1 8 -11 143 -12 177 -1 11 3 36 9 55 12 19 3 37 9 40 13 5 7 12 9
48 15 9 2 27 8 38 15 12 6 24 8 28 5 3 -3 6 -1 6 5 0 6 10 14 23 17 12 4 46
23 75 42 38 26 49 39 40 44 -7 5 -8 9 -3 10 6 0 1 4 -10 9 -18 7 -18 9 -3 15
12 5 29 -5 58 -34 23 -23 48 -41 56 -41 9 0 13 -4 10 -9 -3 -4 6 -13 19 -19
14 -7 25 -16 25 -22 0 -6 4 -9 8 -6 5 3 18 -3 29 -14 12 -10 24 -16 27 -13 3
4 6 1 6 -5 0 -7 6 -12 14 -12 8 0 17 -7 20 -16 3 -8 10 -13 15 -10 5 3 14 -1
21 -9 7 -8 17 -15 22 -15 6 0 23 -9 39 -21 16 -11 33 -18 38 -15 5 4 11 3 13
-2 5 -13 79 -55 85 -48 4 3 15 -1 25 -11 10 -9 18 -13 18 -8 0 4 11 0 25 -9
13 -9 31 -16 40 -16 8 0 15 -4 15 -8 0 -5 6 -9 13 -10 15 -1 36 -7 62 -16 49
-19 72 -26 95 -30 14 -3 42 -9 62 -15 20 -5 39 -6 42 -3 4 3 6 0 6 -7 0 -7 5
-9 10 -6 6 3 15 3 22 -1 6 -4 23 -8 37 -10 14 -1 42 -5 61 -8 42 -6 343 -8
420 -2 30 3 69 10 85 17 17 7 36 13 44 15 62 12 122 28 152 39 20 8 39 11 43
8 3 -4 6 -2 6 4 0 10 64 29 83 25 4 -1 7 2 7 7 0 9 60 37 73 33 4 -1 7 3 7 8
0 6 9 10 19 10 11 0 22 4 26 9 3 6 26 20 50 32 25 12 45 27 45 32 0 6 3 7 7 4
3 -4 21 4 39 18 18 14 37 25 43 25 6 0 11 4 11 10 0 5 13 16 29 24 16 9 45 30
64 48 20 18 47 41 61 52 14 10 23 24 19 30 -3 6 -3 8 2 4 7 -7 42 26 123 115
17 20 32 39 32 42 0 3 11 16 25 29 14 13 25 28 25 33 0 5 9 18 20 28 11 10 17
22 14 26 -3 5 -1 9 5 9 5 0 12 8 16 19 3 10 17 31 30 45 13 14 22 26 19 26 -3
0 9 25 26 55 17 30 28 55 23 55 -4 0 -3 4 3 8 10 6 54 93 54 105 0 3 10 26 22
53 12 27 21 57 19 67 -1 9 3 17 9 17 6 0 8 5 5 10 -3 5 -3 16 2 22 4 7 8 21 9
31 1 9 2 18 4 20 3 3 10 39 12 64 1 13 6 23 11 23 4 0 6 4 2 9 -3 5 -1 13 5
16 8 5 8 11 1 19 -6 7 -8 16 -5 19 10 9 13 76 13 247 0 177 -2 231 -12 246 -3
6 -7 27 -9 47 -1 21 -6 37 -12 37 -5 0 -7 3 -3 6 3 3 1 18 -5 33 -5 14 -12 42
-15 61 -3 19 -9 43 -15 53 -5 9 -6 21 -3 26 3 5 -2 16 -10 25 -17 17 -16 34 2
54 7 7 16 25 19 40 4 15 15 39 25 53 10 14 16 29 12 33 -3 3 -1 6 5 6 7 0 11
3 10 8 -4 10 45 131 52 127 3 -2 6 11 7 28 1 17 6 33 10 36 5 3 10 15 11 26 2
11 8 23 14 26 5 3 9 9 9 13 -1 3 -1 7 0 9 0 1 2 10 5 20 8 35 10 41 31 95 3 9
7 19 7 22 1 3 7 15 14 26 6 12 9 24 6 27 -3 3 2 27 11 54 9 26 18 56 20 66 2
9 6 21 9 26 3 5 8 24 11 42 5 42 10 63 24 117 21 76 33 299 17 306 -6 2 -5 5
3 5 9 1 6 8 -9 21 l-23 20 -20 -32 c-18 -30 -73 -102 -138 -178 -16 -19 -29
-38 -29 -42 0 -5 -5 -8 -11 -8 -6 0 -17 -7 -25 -15 -9 -8 -13 -15 -10 -15 10
0 -133 -130 -199 -181 -16 -13 -31 -27 -33 -31 -2 -5 -9 -8 -16 -8 -7 0 -21
-9 -31 -20 -10 -11 -20 -18 -23 -16 -2 3 -10 0 -18 -7 -33 -30 -42 -35 -48
-30 -3 4 -6 1 -6 -6 0 -7 -4 -9 -10 -6 -5 3 -10 2 -10 -3 0 -4 -16 -14 -35
-22 -19 -8 -35 -17 -35 -20 0 -19 -40 -2 -73 32 -21 21 -42 38 -47 38 -6 0
-10 5 -10 10 0 6 -7 10 -15 10 -8 0 -15 3 -15 8 0 4 -18 18 -40 32 -22 14 -40
28 -40 32 0 5 -7 8 -15 8 -8 0 -15 3 -15 8 0 4 -16 16 -35 26 -19 11 -35 23
-35 28 0 5 -4 7 -9 3 -5 -3 -17 3 -27 12 -10 10 -20 17 -23 16 -3 -1 -42 15
-86 36 -82 40 -154 67 -167 63 -5 -1 -8 3 -8 10 0 6 -3 8 -6 5 -4 -3 -14 -2
-24 3 -9 5 -34 10 -54 12 -20 1 -36 6 -36 10 0 4 -13 8 -29 8 -28 0 -28 1 -25
53 2 28 5 61 8 73 2 11 5 38 7 60 1 21 8 45 13 53 9 12 8 13 -4 6 -13 -7 -13
-6 -2 7 7 9 11 22 10 29 -3 14 91 81 103 73 4 -2 9 -1 11 3 4 11 65 53 77 53
5 0 19 11 32 25 13 13 28 25 32 25 30 0 217 231 217 268 0 6 5 12 10 12 6 0
10 6 10 14 0 7 7 19 15 26 9 7 13 15 11 18 -3 2 1 10 8 18 9 9 13 35 11 79 -1
36 1 68 5 70 5 3 5 230 0 230 -2 0 -8 50 -11 85 -2 29 -21 80 -29 80 -5 0 -7
7 -4 15 4 8 1 22 -6 30 -6 8 -9 18 -6 24 3 5 0 12 -6 14 -9 4 -9 6 1 6 11 1
10 5 -5 15 -10 8 -20 18 -20 23 -5 26 -18 53 -26 53 -5 0 -7 4 -4 9 3 5 -7 23
-23 41 -23 26 -29 29 -34 17z m-786 -981 c0 -6 3 -20 5 -31 3 -11 7 -29 9 -40
2 -11 7 -31 10 -45 3 -14 8 -69 11 -122 l5 -97 -38 -7 c-21 -5 -41 -7 -45 -6
-5 1 -8 -1 -8 -5 0 -5 -17 -8 -38 -8 -20 0 -41 -2 -47 -4 -14 -7 -32 -10 -90
-15 -27 -2 -77 -12 -110 -21 -33 -9 -71 -18 -85 -20 -14 -2 -41 -7 -60 -11
-19 -4 -38 -7 -42 -6 -5 1 -8 -3 -8 -10 0 -6 -3 -8 -7 -5 -3 4 -12 2 -20 -4
-7 -6 -13 -8 -13 -5 0 4 -10 1 -22 -6 -21 -11 -41 -15 -90 -21 -10 0 -18 -4
-18 -7 0 -10 -101 -53 -107 -46 -4 3 0 6 8 6 9 0 21 16 29 35 7 19 16 32 20
30 4 -2 6 5 5 17 -1 12 7 30 17 40 10 10 16 23 13 28 -4 6 -3 10 2 10 14 0 40
65 45 113 1 9 5 17 9 17 3 0 5 20 4 45 -1 25 2 45 8 45 6 0 7 3 4 7 -9 9 13
34 24 27 5 -3 9 -1 9 3 0 5 12 9 28 8 23 -1 85 11 172 31 14 4 31 7 38 7 6 0
12 4 12 9 0 4 3 7 8 6 9 -2 108 16 115 22 3 3 40 12 62 15 11 1 28 6 37 10 10
4 29 8 43 9 14 0 25 4 25 8 0 8 41 15 58 10 6 -2 12 -9 13 -16z m447 -76 c5 0
21 -9 34 -20 14 -10 28 -17 30 -14 3 2 17 -2 31 -9 25 -13 25 -14 7 -29 -10
-9 -21 -14 -24 -11 -3 4 -6 1 -6 -6 0 -7 -4 -10 -9 -7 -5 3 -14 -1 -21 -9 -7
-8 -16 -12 -21 -9 -5 3 -9 1 -9 -5 0 -6 -8 -15 -18 -20 -14 -7 -21 -5 -31 11
-10 16 -10 19 1 12 10 -6 10 -4 2 7 -6 8 -11 23 -12 34 0 19 -4 36 -16 93 l-5
23 29 -21 c15 -11 32 -20 38 -20z m-2213 -280 c3 -5 1 -10 -4 -10 -6 0 -11 5
-11 10 0 6 2 10 4 10 3 0 8 -4 11 -10z m145 -46 c0 -8 -4 -12 -10 -9 -5 3 -10
10 -10 16 0 5 5 9 10 9 6 0 10 -7 10 -16z m35 -12 c-3 -3 -11 0 -18 7 -9 10
-8 11 6 5 10 -3 15 -9 12 -12z m83 -30 c3 -9 -2 -13 -14 -10 -9 1 -19 9 -22
16 -3 9 2 13 14 10 9 -1 19 -9 22 -16z m1513 -15 c-6 -6 -11 -19 -11 -29 0
-10 -4 -18 -10 -18 -5 0 -9 -3 -8 -7 5 -17 -22 -74 -32 -68 -5 3 -10 3 -10 -2
0 -4 -26 -8 -58 -8 -50 1 -95 -6 -142 -23 -8 -2 -24 -6 -35 -8 -11 -1 -47 -10
-80 -19 -33 -9 -67 -18 -75 -20 -8 -2 -16 -4 -17 -5 -2 -2 -6 -3 -10 -5 -5 -1
-16 -5 -26 -10 -10 -4 -26 -9 -35 -10 -26 -3 -82 -29 -82 -37 0 -4 -8 -8 -18
-8 -10 0 -27 -6 -37 -14 -11 -8 -25 -12 -32 -9 -7 3 -13 1 -13 -4 0 -5 -19
-18 -42 -28 -24 -10 -51 -27 -62 -37 -11 -10 -26 -18 -33 -18 -7 0 -13 -5 -13
-12 0 -6 -3 -8 -7 -5 -3 4 -13 -2 -20 -13 -8 -11 -18 -18 -23 -15 -4 3 -10 -2
-14 -10 -3 -8 -12 -15 -20 -15 -9 0 -20 -9 -26 -20 -6 -11 -17 -20 -24 -20 -8
0 -17 -7 -20 -16 -4 -9 -9 -15 -12 -12 -6 7 -134 -121 -134 -134 0 -6 -3 -9
-6 -5 -4 3 -22 -13 -41 -36 -18 -23 -45 -54 -58 -68 -14 -14 -25 -30 -25 -35
0 -5 -11 -21 -25 -36 -14 -15 -25 -31 -25 -36 0 -5 -8 -20 -18 -33 -28 -36
-73 -119 -64 -119 4 0 2 -4 -4 -8 -6 -4 -23 -34 -39 -67 -27 -59 -31 -67 -39
-102 -3 -10 -5 -19 -6 -20 -2 -2 -3 -6 -5 -10 -1 -5 -7 -20 -13 -36 -7 -15
-14 -38 -16 -50 -11 -56 -19 -77 -33 -77 -8 0 -11 4 -8 10 3 6 2 10 -3 10 -5
0 -8 11 -7 25 2 14 -1 25 -6 25 -5 0 -9 9 -9 20 0 11 -5 20 -10 20 -7 0 -10
19 -9 45 2 25 6 45 9 45 4 0 7 6 7 13 3 51 22 127 36 145 5 6 7 12 3 12 -4 0
3 18 14 40 11 22 18 40 14 40 -4 0 -1 7 6 15 6 8 9 19 5 25 -3 5 -2 10 3 10 5
0 21 29 37 65 15 36 35 70 44 75 9 5 12 10 8 10 -10 0 61 105 97 143 14 15 26
32 26 38 0 5 7 9 17 9 9 0 13 3 10 7 -4 3 17 27 45 52 29 25 63 56 75 68 13
12 23 19 23 15 0 -4 6 0 13 9 21 26 130 97 220 141 20 10 37 23 37 29 0 6 4 8
9 5 4 -3 34 7 65 23 31 16 56 27 56 24 0 -2 6 -1 13 4 6 4 14 8 17 9 25 6 70
30 70 37 0 4 4 6 8 3 9 -5 111 22 127 34 10 7 49 18 93 26 54 10 70 13 127 28
33 8 75 18 94 21 19 3 39 9 44 12 6 4 7 1 2 -6 -6 -10 -3 -11 11 -3 11 5 27 8
37 7 9 -2 17 1 17 6 0 6 3 8 8 6 4 -3 15 -2 24 2 32 11 91 10 79 -2z m-1088
-212 c-7 -18 -102 -77 -113 -70 -8 5 -8 10 0 20 8 9 8 15 0 20 -7 4 -7 12 0
25 8 15 20 18 64 17 31 -1 52 -6 49 -12z m-1586 -410 c0 -9 -9 -15 -21 -15
-21 1 -21 1 -2 15 24 18 23 18 23 0z m-63 -61 c3 -8 2 -12 -4 -9 -6 3 -10 10
-10 16 0 14 7 11 14 -7z m1081 -744 c-2 -3 4 -24 14 -45 15 -35 17 -70 15
-267 -1 -126 1 -228 5 -228 3 0 6 -19 5 -42 -1 -24 4 -46 10 -50 7 -5 6 -8 -4
-8 -9 0 -20 15 -26 35 -8 25 -8 35 0 35 7 0 6 3 -1 8 -7 5 -14 20 -15 35 -1
15 -7 27 -13 27 -5 0 -3 5 5 10 8 5 10 10 4 10 -11 0 -13 13 -17 132 -1 38 -6
68 -11 68 -6 0 -5 5 2 12 8 8 9 15 1 25 -9 10 -8 13 1 13 10 0 10 3 1 14 -9
10 -9 16 -1 21 8 5 8 11 1 19 -7 9 -7 16 1 24 9 9 9 12 -1 12 -7 0 -9 5 -5 12
12 19 12 48 1 48 -5 0 -5 6 2 13 8 10 7 17 -2 27 -10 10 -9 11 3 5 13 -8 13
-7 1 8 -9 12 -10 17 -2 17 7 0 10 4 7 8 -3 5 1 9 9 9 8 0 12 -3 10 -7z m50
-660 c3 -6 -1 -7 -9 -4 -18 7 -21 14 -7 14 6 0 13 -4 16 -10z m3 -31 c-10 -7
-11 -9 0 -9 7 0 10 -4 7 -10 -3 -5 -1 -10 5 -10 7 0 10 -7 7 -15 -4 -8 -2 -17
3 -20 5 -3 8 -14 7 -25 -1 -10 -5 -17 -9 -14 -4 3 -4 12 -1 21 4 11 3 14 -6 9
-6 -4 -11 -4 -10 1 2 8 -2 22 -21 69 -7 19 -6 21 12 16 15 -4 17 -7 6 -13z
m-41 -495 c-4 -4 3 -15 14 -25 11 -9 20 -20 20 -23 -2 -18 0 -23 12 -24 34 -3
53 -8 57 -14 3 -4 20 -8 38 -10 18 -1 32 -5 32 -8 0 -3 9 -11 21 -18 17 -11
20 -11 14 0 -3 7 1 4 10 -7 9 -11 19 -20 24 -20 4 0 31 -24 59 -52 51 -52 67
-81 37 -69 -8 3 -15 1 -15 -4 0 -6 -7 -10 -15 -10 -8 0 -15 -5 -15 -11 0 -5
-8 -9 -17 -7 -10 1 -23 -1 -30 -5 -6 -4 -15 -3 -18 3 -5 8 -11 7 -21 -1 -11
-9 -14 -9 -14 0 0 7 -5 9 -12 5 -7 -4 -8 -3 -4 5 4 6 12 9 17 6 5 -4 15 -3 22
2 6 4 17 8 22 9 18 3 65 23 65 28 0 16 -14 36 -26 36 -8 0 -14 5 -14 10 0 6
-7 10 -15 10 -8 0 -15 4 -15 10 0 5 -3 9 -7 8 -5 -1 -20 6 -35 16 -15 10 -33
19 -40 20 -30 5 -58 18 -58 27 0 5 -3 8 -7 7 -5 0 -17 3 -27 7 -13 6 -21 4
-24 -3 -2 -7 -8 -10 -13 -6 -5 3 -9 0 -9 -5 0 -6 -5 -11 -12 -11 -6 0 -20 -8
-31 -17 -11 -10 -17 -12 -13 -5 4 7 2 12 -6 12 -7 0 2 9 20 20 17 11 32 23 32
27 0 3 -3 3 -7 0 -3 -4 -13 -1 -21 6 -13 10 -14 9 -7 -3 7 -13 6 -13 -7 -2
-12 9 -18 10 -23 2 -4 -7 -11 -8 -18 -1 -7 5 -47 8 -90 7 -64 -1 -77 2 -75 14
3 12 21 15 88 15 47 1 102 -2 123 -6 20 -3 40 -2 43 2 3 5 0 9 -5 9 -6 0 -11
7 -11 15 0 8 -6 15 -12 15 -9 0 -8 4 2 10 17 11 26 13 17 4z m-294 -38 c15 -9
27 -10 27 -5 0 6 4 8 10 4 16 -10 1 -31 -23 -32 -12 0 -29 -2 -37 -4 -10 -3
-14 4 -15 24 -1 31 1 32 38 13z m705 -282 c26 -18 29 -34 5 -34 -9 0 -13 3
-10 7 4 3 -7 19 -23 35 -17 16 -28 34 -24 40 4 7 11 3 18 -11 7 -12 22 -28 34
-37z"/>
</g>
</svg>
